<?xml version="1.0" encoding="utf-8"?>
<!-- Generator: Adobe Illustrator 23.0.1, SVG Export Plug-In . SVG Version: 6.00 Build 0)  -->
<svg version="1.1" id="Layer_1" xmlns="http://www.w3.org/2000/svg" xmlns:xlink="http://www.w3.org/1999/xlink" x="0px" y="0px"
	 viewBox="0 0 24 24" style="enable-background:new 0 0 24 24;" xml:space="preserve">
<path id="_x32_.Rails" d="M25.68-2.22l0.31,0.22L25.93-1.9l-0.26-0.14L25.68-2.22z M24.78-2.48l0.04,0.25l-0.38,0.01L24.38-2.5
	L24.78-2.48z M23.59-2.35l0.22,0.25L23.5-1.92l-0.22-0.27L23.59-2.35z M22.55-1.55l0.32,0.22l-0.25,0.3l-0.34-0.22L22.55-1.55z
	 M21.71-0.31l0.43,0.17l-0.13,0.36l-0.43-0.13L21.71-0.31z M21.18,1.71l0.06-0.46l0.49,0.04l-0.08,0.49L21.18,1.71z M24.33-0.1
	l-0.07,0.31l-0.31-0.27l0.12-0.25L24.33-0.1z M24.24-0.91l0.19-0.17l0.19,0.28l-0.11,0.19L24.24-0.91z M24.28,0.73l0.02,0.31
	l-0.4-0.16l0.02-0.33L24.28,0.73z M24.45,1.71l0.17,0.37l-0.49-0.03l-0.09-0.34H24.45z M24.94-1.15l-0.12-0.22l0.26-0.07l0.04,0.15
	L24.94-1.15z M25.88-1.33l-0.25-0.03v-0.13l0.25,0.05V-1.33z M26.17-1.37c-0.02-0.02-0.05-0.05-0.09-0.09
	c-0.04-0.03-0.13-0.08-0.27-0.12c-0.14-0.05-0.28-0.06-0.43-0.05c-0.14,0.01-0.29,0.06-0.45,0.13c-0.16,0.07-0.32,0.18-0.48,0.31
	c-0.16,0.13-0.3,0.31-0.42,0.54c-0.12,0.22-0.19,0.47-0.22,0.74c-0.02,0.23-0.03,0.47-0.01,0.69c0.02,0.23,0.05,0.44,0.09,0.65
	c0.04,0.21,0.09,0.39,0.14,0.55c0.05,0.16,0.09,0.28,0.13,0.38l0.06,0.14h-2.49c-0.04-0.27-0.01-0.67,0.1-1.2
	c0.07-0.37,0.17-0.7,0.29-1c0.12-0.3,0.29-0.65,0.51-1.06c0.22-0.4,0.5-0.74,0.83-1c0.33-0.26,0.72-0.41,1.16-0.45
	c0.17-0.02,0.35-0.01,0.53,0.03c0.18,0.04,0.33,0.09,0.46,0.16c0.13,0.07,0.25,0.14,0.36,0.21c0.11,0.07,0.19,0.13,0.24,0.18
	l0.08,0.07L26.17-1.37z"/>
</svg>
