<?xml version="1.0" encoding="utf-8"?>
<!-- Generator: Adobe Illustrator 23.0.1, SVG Export Plug-In . SVG Version: 6.00 Build 0)  -->
<svg version="1.1" id="Layer_1" xmlns="http://www.w3.org/2000/svg" xmlns:xlink="http://www.w3.org/1999/xlink" x="0px" y="0px"
	 viewBox="0 0 24 24" style="enable-background:new 0 0 24 24;" xml:space="preserve">
<path id="_x33_.JS" d="M1.55,21.89h-4.37c-0.18,0-0.32,0.14-0.32,0.32v4.36c0,0.18,0.14,0.32,0.32,0.32h4.36
	c0.18,0,0.32-0.14,0.32-0.32v-4.37C1.87,22.04,1.72,21.89,1.55,21.89z M-0.4,25.72c0,0.48-0.28,0.69-0.69,0.69
	c-0.37,0-0.63-0.25-0.74-0.48l0.37-0.23c0.07,0.13,0.18,0.23,0.34,0.23c0.15,0,0.24-0.06,0.24-0.29v-1.5h0.48V25.72z M0.64,26.42
	c-0.42,0-0.66-0.21-0.79-0.48L0.2,25.7c0.1,0.16,0.2,0.31,0.43,0.31c0.19,0,0.29-0.09,0.29-0.22c0-0.16-0.1-0.21-0.31-0.3
	l-0.11-0.05c-0.33-0.14-0.55-0.31-0.55-0.68c0-0.34,0.26-0.6,0.67-0.6c0.29,0,0.5,0.1,0.65,0.36L0.9,24.75
	c-0.08-0.14-0.16-0.19-0.29-0.19c-0.13,0-0.22,0.08-0.22,0.19c0,0.14,0.08,0.19,0.28,0.28l0.11,0.05c0.39,0.17,0.6,0.33,0.6,0.71
	C1.39,26.19,1.07,26.42,0.64,26.42z"/>
</svg>
