<?xml version="1.0" encoding="utf-8"?>
<!-- Generator: Adobe Illustrator 23.0.1, SVG Export Plug-In . SVG Version: 6.00 Build 0)  -->
<svg version="1.1" id="Layer_1" xmlns="http://www.w3.org/2000/svg" xmlns:xlink="http://www.w3.org/1999/xlink" x="0px" y="0px"
	 viewBox="0 0 24 24" style="enable-background:new 0 0 24 24;" xml:space="preserve">
<path id="_x31_.Ruby" d="M2.8-2.06L1.22-2.33l1.26-0.41L2.8-2.06z M-0.43-0.18l1.84,0.38l-2.13,1.68L-0.43-0.18z M-0.83,1.63
	l-0.63-1.26l0.89-0.56L-0.83,1.63z M-0.41-0.31l0.99-1.1l0.79,1.5L-0.41-0.31z M0.73-1.42l1.88-0.51L1.53,0.09L0.73-1.42z
	 M0.66-1.55l0.26-0.67L2.4-1.99L0.66-1.55z M1.99-2.75L0.8-2.37L0.59-2.42L1.99-2.75z M-1.42-0.71l0.9-1.01l0.86-0.6l0.4,0.11
	L0.49-1.55l-1.07,1.19l-0.95,0.6L-1.8,0L-1.42-0.71z M-2.02,1.67l0.16-1.51l0.28,0.23l-0.44,1.36L-2.02,1.67z M-1.51,0.59l0.68,1.36
	l-1.15,0.14L-1.51,0.59z M-1.89,2.25l1.15-0.14l0.02-0.01v0.01l3.25,0.13L-1.89,2.25z M-0.57,1.99l2.11-1.67l1.33,1.8L-0.57,1.99z
	 M1.63,0.24l1.18-2.22L3,2.1L1.63,0.24z"/>
</svg>
